<svg 
 xmlns="http://www.w3.org/2000/svg"
 xmlns:xlink="http://www.w3.org/1999/xlink"
 width="192px" height="192px">
<path fill-rule="evenodd"  fill="rgb(111, 45, 189)"
 d="M-0.000,-0.000 L192.000,-0.000 L192.000,192.000 L-0.000,192.000 L-0.000,-0.000 Z"/>
<path fill-rule="evenodd"  fill="rgb(255, 255, 255)"
 d="M138.664,143.664 L53.335,143.664 C47.469,143.664 42.669,138.864 42.669,132.998 L42.669,69.002 C42.669,63.135 47.469,58.336 53.335,58.336 L70.401,58.336 L80.001,47.670 L111.999,47.670 L121.598,58.336 L138.664,58.336 C144.531,58.336 149.330,63.135 149.330,69.002 L149.330,132.998 C149.330,138.864 144.531,143.664 138.664,143.664 ZM96.000,74.335 C81.067,74.335 69.335,86.067 69.335,101.000 C69.335,115.932 81.067,127.665 96.000,127.665 C110.932,127.665 122.665,115.932 122.665,101.000 C122.665,86.067 110.932,74.335 96.000,74.335 ZM96.000,118.066 C86.575,118.066 78.934,110.425 78.934,101.000 C78.934,91.575 86.575,83.934 96.000,83.934 C105.425,83.934 113.066,91.575 113.066,101.000 C113.066,110.425 105.425,118.066 96.000,118.066 Z"/>
</svg>