<svg 
 xmlns="http://www.w3.org/2000/svg"
 xmlns:xlink="http://www.w3.org/1999/xlink"
 width="48px" height="48px">
<path fill-rule="evenodd"  fill="rgb(255, 255, 255)"
 d="M24.000,48.000 C10.745,48.000 -0.000,37.255 -0.000,24.000 C-0.000,10.745 10.745,-0.000 24.000,-0.000 C37.255,-0.000 48.000,10.745 48.000,24.000 C48.000,37.255 37.255,48.000 24.000,48.000 ZM24.000,3.000 C12.402,3.000 3.000,12.402 3.000,24.000 C3.000,35.598 12.402,45.000 24.000,45.000 C35.598,45.000 45.000,35.598 45.000,24.000 C45.000,12.402 35.598,3.000 24.000,3.000 ZM34.000,26.000 L26.000,26.000 L26.000,34.000 C26.000,35.105 25.105,36.000 24.000,36.000 C22.895,36.000 22.000,35.105 22.000,34.000 L22.000,26.000 L14.000,26.000 C12.895,26.000 12.000,25.105 12.000,24.000 C12.000,22.895 12.895,22.000 14.000,22.000 L22.000,22.000 L22.000,14.000 C22.000,12.895 22.895,12.000 24.000,12.000 C25.105,12.000 26.000,12.895 26.000,14.000 L26.000,22.000 L34.000,22.000 C35.105,22.000 36.000,22.895 36.000,24.000 C36.000,25.105 35.105,26.000 34.000,26.000 Z"/>
</svg>