<svg 
 xmlns="http://www.w3.org/2000/svg"
 xmlns:xlink="http://www.w3.org/1999/xlink"
 width="189px" height="189px">
<path fill-rule="evenodd"  fill="rgb(253, 253, 253)"
 d="M94.500,189.000 C42.309,189.000 -0.000,146.691 -0.000,94.500 C-0.000,42.309 42.309,-0.000 94.500,-0.000 C146.691,-0.000 189.000,42.309 189.000,94.500 C189.000,146.691 146.691,189.000 94.500,189.000 ZM144.973,134.434 C144.972,132.944 144.120,131.845 142.415,131.138 C141.759,130.869 139.406,129.881 135.357,128.176 L103.831,48.024 L86.125,48.024 L54.598,128.176 C50.573,129.872 48.221,130.860 47.542,131.138 C45.838,131.846 44.986,132.945 44.986,134.434 L44.986,140.998 L49.555,140.998 L59.638,140.998 L61.789,140.998 L63.011,140.998 L76.441,140.998 L76.441,134.434 C76.442,132.945 75.590,131.846 73.885,131.138 C73.586,131.015 72.728,130.657 71.312,130.062 L71.611,129.247 L76.442,116.059 L113.523,116.059 L118.147,128.708 L118.644,130.064 C117.240,130.653 116.383,131.011 116.073,131.138 C114.368,131.846 113.516,132.945 113.517,134.434 L113.517,140.998 L127.010,140.998 L128.169,140.998 L130.321,140.998 L140.401,140.998 L144.973,140.998 L144.973,134.434 ZM91.469,75.093 C92.030,73.669 92.598,72.019 93.175,70.142 C93.749,68.274 94.339,66.238 94.946,64.034 C95.547,66.223 96.158,68.248 96.780,70.111 C97.394,71.950 97.962,73.567 98.487,74.965 L109.068,103.845 L80.891,103.845 L91.469,75.093 Z"/>
</svg>