<svg 
 xmlns="http://www.w3.org/2000/svg"
 xmlns:xlink="http://www.w3.org/1999/xlink"
 width="48px" height="36px">
<path fill-rule="evenodd"  fill="rgb(255, 255, 255)"
 d="M45.000,36.000 L3.000,36.000 C1.343,36.000 -0.000,34.657 -0.000,33.000 L-0.000,3.000 C-0.000,1.343 1.343,-0.000 3.000,-0.000 L45.000,-0.000 C46.657,-0.000 48.000,1.343 48.000,3.000 L48.000,33.000 C48.000,34.657 46.657,36.000 45.000,36.000 ZM45.000,4.500 C45.000,3.672 44.328,3.000 43.500,3.000 L4.500,3.000 C3.672,3.000 3.000,3.672 3.000,4.500 L3.000,31.500 C3.000,32.328 3.672,33.000 4.500,33.000 L43.500,33.000 C44.328,33.000 45.000,32.328 45.000,31.500 L45.000,4.500 ZM18.750,11.249 L29.251,18.000 L18.750,24.751 L18.750,11.249 Z"/>
</svg>