<svg 
 xmlns="http://www.w3.org/2000/svg"
 xmlns:xlink="http://www.w3.org/1999/xlink"
 width="189px" height="189px">
<path fill-rule="evenodd"  fill="rgb(253, 253, 253)"
 d="M94.500,189.000 C42.309,189.000 -0.000,146.691 -0.000,94.500 C-0.000,42.309 42.309,-0.000 94.500,-0.000 C146.691,-0.000 189.000,42.309 189.000,94.500 C189.000,146.691 146.691,189.000 94.500,189.000 ZM128.989,131.975 L128.989,127.174 L128.989,116.496 L128.442,116.496 L126.891,116.496 L121.629,116.496 C119.983,116.495 118.989,117.294 118.647,118.893 C118.473,119.893 118.164,122.654 117.720,127.175 L88.005,127.175 L88.005,100.877 L119.271,100.877 L119.271,87.567 L88.005,87.567 L88.005,61.783 L117.720,61.783 C118.163,66.298 118.472,69.056 118.647,70.057 C118.989,71.656 119.983,72.455 121.629,72.455 L126.891,72.455 L128.442,72.455 L128.989,72.455 L128.989,61.784 L128.989,56.976 L128.989,48.025 L70.678,48.023 L60.991,48.023 L60.991,55.582 C60.991,57.804 62.057,59.144 64.190,59.603 C64.380,59.638 64.648,59.687 64.994,59.750 C65.340,59.812 65.975,59.927 66.898,60.095 C67.821,60.262 69.081,60.486 70.678,60.770 L70.678,128.251 C69.081,128.534 67.821,128.759 66.898,128.925 C65.976,129.092 65.341,129.207 64.993,129.271 C64.646,129.335 64.379,129.384 64.190,129.417 C62.056,129.877 60.990,131.217 60.991,133.439 L60.991,140.998 L70.678,140.998 L128.989,140.998 L128.989,131.975 Z"/>
</svg>