<svg 
 xmlns="http://www.w3.org/2000/svg"
 xmlns:xlink="http://www.w3.org/1999/xlink"
 width="40px" height="40px">
<defs>
<filter id="Filter_0">
    <feFlood flood-color="rgb(163, 163, 163)" flood-opacity="1" result="floodOut" />
    <feComposite operator="atop" in="floodOut" in2="SourceGraphic" result="compOut" />
    <feBlend mode="normal" in="compOut" in2="SourceGraphic" />
</filter>

</defs>
<g filter="url(#Filter_0)">
<path fill-rule="evenodd"  fill="rgb(255, 255, 255)"
 d="M20.000,-0.000 C8.999,-0.000 -0.000,9.000 -0.000,20.000 C-0.000,31.000 8.999,40.000 20.000,40.000 C31.000,40.000 40.000,31.000 40.000,20.000 C40.000,9.000 31.000,-0.000 20.000,-0.000 ZM22.000,34.000 L18.000,34.000 L18.000,30.000 L22.000,30.000 L22.000,34.000 ZM26.200,18.600 L24.400,20.400 C22.800,21.800 22.000,23.000 22.000,26.000 L18.000,26.000 L18.000,25.000 C18.000,22.800 18.800,20.800 20.400,19.400 L22.800,16.800 C23.600,16.200 24.000,15.200 24.000,14.000 C24.000,11.800 22.200,10.000 20.000,10.000 C17.800,10.000 16.000,11.800 16.000,14.000 L12.000,14.000 C12.000,9.600 15.600,6.000 20.000,6.000 C24.400,6.000 28.000,9.600 28.000,14.000 C28.000,15.800 27.200,17.400 26.200,18.600 Z"/>
</g>
</svg>