<svg 
 xmlns="http://www.w3.org/2000/svg"
 xmlns:xlink="http://www.w3.org/1999/xlink"
 width="36px" height="48px">
<path fill-rule="evenodd"  fill="rgb(255, 255, 255)"
 d="M36.000,3.000 L36.000,45.000 C36.000,46.657 34.657,48.000 33.000,48.000 L18.000,40.500 L3.000,48.000 C1.343,48.000 -0.000,46.657 -0.000,45.000 L-0.000,3.000 C-0.000,1.343 1.343,0.000 3.000,0.000 L33.000,0.000 C34.657,0.000 36.000,1.343 36.000,3.000 ZM4.500,3.000 C3.672,3.000 3.000,3.672 3.000,4.500 L3.000,43.500 C3.000,44.328 3.672,43.500 4.500,43.500 L18.000,36.750 L31.500,43.500 C32.328,43.500 33.000,44.328 33.000,43.500 L33.000,4.500 C33.000,3.672 32.328,3.000 31.500,3.000 L4.500,3.000 Z"/>
</svg>