<svg 
 xmlns="http://www.w3.org/2000/svg"
 xmlns:xlink="http://www.w3.org/1999/xlink"
 width="383px" height="333px">
<path fill-rule="evenodd"  fill="rgb(255, 255, 255)"
 d="M380.721,280.375 L364.950,280.375 L364.950,329.850 C364.950,331.025 364.336,331.612 363.109,331.612 L361.668,331.612 C360.493,331.612 359.906,331.025 359.906,329.850 L359.906,280.375 L344.055,280.375 C342.880,280.375 342.294,279.788 342.294,278.614 L342.294,277.413 C342.294,276.186 342.880,275.571 344.055,275.571 L380.721,275.571 C381.948,275.571 382.563,276.186 382.563,277.413 L382.563,278.614 C382.563,279.788 381.948,280.375 380.721,280.375 ZM330.926,331.612 L329.404,331.612 C328.230,331.612 327.643,331.025 327.643,329.850 L327.643,277.333 C327.643,276.159 328.230,275.571 329.404,275.571 L330.926,275.571 C332.099,275.571 332.687,276.159 332.687,277.333 L332.687,329.850 C332.687,331.025 332.099,331.612 330.926,331.612 ZM313.633,280.375 L286.013,280.375 L286.013,301.910 L312.032,301.910 C313.259,301.910 313.873,302.524 313.873,303.752 L313.873,304.952 C313.873,306.127 313.259,306.714 312.032,306.714 L286.013,306.714 L286.013,329.850 C286.013,331.025 285.399,331.612 284.172,331.612 L282.731,331.612 C281.556,331.612 280.970,331.025 280.970,329.850 L280.970,277.413 C280.970,276.186 281.556,275.571 282.731,275.571 L313.633,275.571 C314.860,275.571 315.474,276.186 315.474,277.413 L315.474,278.614 C315.474,279.788 314.860,280.375 313.633,280.375 ZM262.877,327.649 C260.901,329.117 258.473,330.278 255.591,331.131 C252.709,331.984 249.480,332.412 245.905,332.412 C242.915,332.412 240.060,332.052 237.338,331.331 C234.616,330.611 232.201,329.570 230.093,328.209 C227.984,326.848 226.290,325.207 225.010,323.286 C223.728,321.364 223.008,319.230 222.848,316.881 C222.794,316.241 222.994,315.720 223.448,315.320 C223.901,314.920 224.422,314.719 225.010,314.719 L230.614,314.719 C231.520,314.719 232.215,314.880 232.695,315.200 C233.175,315.520 233.576,316.000 233.896,316.641 C234.269,317.335 234.723,318.029 235.257,318.722 C235.790,319.417 236.510,320.031 237.418,320.564 C238.325,321.098 239.460,321.538 240.821,321.885 C242.182,322.232 243.876,322.405 245.905,322.405 C247.506,322.405 249.053,322.285 250.548,322.045 C252.041,321.805 253.350,321.404 254.471,320.844 C255.591,320.284 256.498,319.591 257.193,318.762 C257.885,317.936 258.233,316.909 258.233,315.680 C258.233,314.507 257.859,313.546 257.113,312.798 C256.365,312.051 255.231,311.411 253.710,310.877 C252.189,310.344 250.308,309.836 248.066,309.356 C245.824,308.875 243.235,308.262 240.300,307.514 C237.631,306.874 235.297,306.113 233.295,305.233 C231.294,304.352 229.639,303.271 228.332,301.990 C227.023,300.709 226.050,299.202 225.410,297.467 C224.769,295.733 224.449,293.664 224.449,291.263 C224.449,288.861 224.982,286.647 226.050,284.618 C227.117,282.590 228.584,280.855 230.453,279.414 C232.321,277.973 234.549,276.840 237.138,276.012 C239.726,275.185 242.515,274.771 245.504,274.771 C249.079,274.771 252.229,275.251 254.951,276.212 C257.673,277.173 259.941,278.373 261.756,279.815 C263.570,281.256 264.944,282.844 265.879,284.578 C266.812,286.313 267.332,287.954 267.440,289.501 C267.492,290.142 267.292,290.662 266.839,291.063 C266.385,291.463 265.865,291.663 265.278,291.663 L259.674,291.663 C258.766,291.663 258.086,291.490 257.633,291.143 C257.179,290.796 256.765,290.330 256.392,289.742 C255.591,288.408 254.377,287.247 252.749,286.259 C251.121,285.272 248.707,284.778 245.504,284.778 C244.116,284.778 242.795,284.926 241.541,285.218 C240.287,285.512 239.192,285.939 238.259,286.499 C237.325,287.060 236.590,287.740 236.057,288.541 C235.523,289.341 235.257,290.249 235.257,291.263 C235.257,292.491 235.510,293.492 236.017,294.265 C236.524,295.039 237.378,295.706 238.579,296.266 C239.780,296.827 241.368,297.347 243.343,297.827 C245.317,298.308 247.772,298.868 250.708,299.509 C253.910,300.203 256.672,301.017 258.994,301.950 C261.316,302.885 263.209,304.006 264.678,305.313 C266.145,306.621 267.240,308.129 267.960,309.836 C268.681,311.545 269.041,313.492 269.041,315.680 C269.041,318.082 268.507,320.311 267.440,322.365 C266.372,324.420 264.851,326.181 262.877,327.649 ZM214.762,310.797 C214.602,313.786 214.028,316.601 213.041,319.243 C212.053,321.885 210.599,324.180 208.678,326.128 C206.756,328.077 204.341,329.610 201.433,330.731 C198.523,331.852 195.121,332.412 191.225,332.412 C187.275,332.412 183.860,331.852 180.978,330.731 C178.096,329.610 175.694,328.077 173.773,326.128 C171.851,324.180 170.397,321.885 169.410,319.243 C168.421,316.601 167.849,313.786 167.688,310.797 C167.635,309.784 167.595,308.663 167.568,307.434 C167.541,306.207 167.528,304.940 167.528,303.632 C167.528,302.324 167.541,301.057 167.568,299.829 C167.595,298.602 167.635,297.481 167.688,296.466 C167.849,293.478 168.421,290.662 169.410,288.020 C170.397,285.378 171.851,283.084 173.773,281.135 C175.694,279.188 178.096,277.640 180.978,276.492 C183.860,275.345 187.275,274.771 191.225,274.771 C195.121,274.771 198.511,275.331 201.393,276.452 C204.275,277.573 206.676,279.121 208.598,281.095 C210.519,283.071 211.986,285.366 213.001,287.980 C214.014,290.596 214.602,293.424 214.762,296.466 C214.815,297.481 214.855,298.602 214.882,299.829 C214.909,301.057 214.922,302.324 214.922,303.632 C214.922,304.940 214.909,306.207 214.882,307.434 C214.855,308.663 214.815,309.784 214.762,310.797 ZM203.954,296.867 C203.740,293.024 202.500,290.049 200.232,287.940 C197.963,285.833 194.960,284.778 191.225,284.778 C187.489,284.778 184.487,285.833 182.219,287.940 C179.950,290.049 178.709,293.024 178.496,296.867 C178.388,298.896 178.336,301.150 178.336,303.632 C178.336,306.113 178.388,308.369 178.496,310.396 C178.709,314.239 179.950,317.201 182.219,319.283 C184.487,321.364 187.489,322.405 191.225,322.405 C194.960,322.405 197.963,321.364 200.232,319.283 C202.500,317.201 203.740,314.239 203.954,310.396 C204.061,308.369 204.114,306.113 204.114,303.632 C204.114,301.150 204.061,298.896 203.954,296.867 ZM153.278,331.612 L146.793,331.612 C146.205,331.612 145.699,331.399 145.272,330.971 C144.844,330.545 144.632,330.038 144.632,329.450 L144.632,298.148 L134.224,316.161 C133.957,316.588 133.584,317.029 133.104,317.482 C132.623,317.936 132.009,318.162 131.262,318.162 L127.099,318.162 C126.351,318.162 125.738,317.936 125.258,317.482 C124.777,317.029 124.404,316.588 124.137,316.161 L113.730,298.148 L113.730,329.450 C113.730,330.038 113.516,330.545 113.089,330.971 C112.661,331.399 112.155,331.612 111.568,331.612 L105.083,331.612 C104.495,331.612 103.989,331.399 103.562,330.971 C103.134,330.545 102.922,330.038 102.922,329.450 L102.922,277.733 C102.922,277.146 103.134,276.640 103.562,276.212 C103.989,275.785 104.495,275.571 105.083,275.571 L110.527,275.571 C111.594,275.571 112.381,275.865 112.889,276.452 C113.396,277.040 113.756,277.467 113.970,277.733 L129.181,304.152 L144.392,277.733 C144.604,277.467 144.965,277.040 145.472,276.452 C145.979,275.865 146.766,275.571 147.834,275.571 L153.278,275.571 C153.865,275.571 154.371,275.785 154.799,276.212 C155.226,276.640 155.440,277.146 155.440,277.733 L155.440,329.450 C155.440,330.038 155.226,330.545 154.799,330.971 C154.371,331.399 153.865,331.612 153.278,331.612 ZM93.555,285.579 L79.145,285.579 L79.145,329.450 C79.145,330.038 78.931,330.545 78.504,330.971 C78.076,331.399 77.570,331.612 76.983,331.612 L70.499,331.612 C69.911,331.612 69.404,331.399 68.977,330.971 C68.550,330.545 68.337,330.038 68.337,329.450 L68.337,285.579 L53.927,285.579 C53.339,285.579 52.832,285.366 52.405,284.938 C51.978,284.512 51.765,284.005 51.765,283.417 L51.765,277.733 C51.765,277.146 51.978,276.640 52.405,276.212 C52.832,275.785 53.339,275.571 53.927,275.571 L93.555,275.571 C94.142,275.571 94.648,275.785 95.076,276.212 C95.503,276.640 95.717,277.146 95.717,277.733 L95.717,283.417 C95.717,284.005 95.503,284.512 95.076,284.938 C94.648,285.366 94.142,285.579 93.555,285.579 ZM54.327,329.450 C54.327,330.038 54.113,330.545 53.686,330.971 C53.259,331.399 52.752,331.612 52.165,331.612 L46.401,331.612 C45.333,331.612 44.586,331.385 44.159,330.931 C43.732,330.478 43.439,330.038 43.279,329.610 L39.837,320.724 L14.538,320.724 L11.096,329.610 C10.936,330.038 10.642,330.478 10.215,330.931 C9.787,331.385 9.041,331.612 7.974,331.612 L2.209,331.612 C1.621,331.612 1.115,331.399 0.688,330.971 C0.260,330.545 0.048,330.038 0.048,329.450 C0.048,329.237 0.074,329.050 0.128,328.890 L19.742,278.293 C20.062,277.387 20.435,276.706 20.863,276.252 C21.289,275.799 21.930,275.571 22.784,275.571 L31.591,275.571 C32.444,275.571 33.084,275.799 33.512,276.252 C33.939,276.706 34.312,277.387 34.633,278.293 L54.247,328.890 C54.299,329.050 54.327,329.237 54.327,329.450 ZM27.187,287.900 L18.381,310.717 L35.994,310.717 L27.187,287.900 Z"/>
<path fill-rule="evenodd"  fill="rgb(255, 255, 255)"
 d="M319.665,216.042 C316.747,218.041 313.420,219.001 310.126,219.001 C304.756,219.001 299.475,216.450 296.203,211.703 L266.226,168.206 L165.426,168.206 C156.108,168.206 148.553,160.675 148.553,151.386 C148.553,142.096 156.108,134.565 165.426,134.565 L275.106,134.565 C280.664,134.565 285.867,137.294 289.014,141.861 L324.019,192.653 C329.297,200.310 327.348,210.782 319.665,216.042 ZM243.468,117.744 L199.736,117.744 C190.417,117.744 182.862,110.213 182.862,100.923 C182.862,91.633 190.417,84.102 199.736,84.102 L213.024,84.102 L190.727,48.540 L89.173,210.294 C85.971,215.394 80.474,218.193 74.853,218.193 C71.795,218.193 68.702,217.365 65.917,215.628 C58.019,210.700 55.623,200.321 60.566,192.446 L176.434,7.895 C179.519,2.982 184.924,-0.002 190.737,-0.002 C190.739,-0.002 190.740,-0.002 190.742,-0.002 C196.559,-0.000 201.964,2.988 205.045,7.903 L257.781,92.014 C261.029,97.200 261.199,103.734 258.224,109.080 C255.250,114.427 249.601,117.744 243.468,117.744 Z"/>
</svg>