<svg 
 xmlns="http://www.w3.org/2000/svg"
 xmlns:xlink="http://www.w3.org/1999/xlink"
 width="64px" height="51px">
<defs>
<linearGradient id="PSgrad_0" x1="70.711%" x2="0%" y1="70.711%" y2="0%">
  <stop offset="0%" stop-color="rgb(148,58,255)" stop-opacity="1" />
  <stop offset="100%" stop-color="rgb(0,247,215)" stop-opacity="1" />
</linearGradient>

</defs>
<path fill-rule="evenodd"  fill-opacity="0" fill="rgb(255, 255, 255)"
 d="M62.248,50.310 C61.553,50.775 60.762,50.999 59.978,50.999 C58.701,50.999 57.444,50.405 56.666,49.299 L49.535,39.170 L25.556,39.170 C23.339,39.170 21.542,37.416 21.542,35.253 C21.542,33.090 23.339,31.336 25.556,31.336 L51.647,31.336 C52.970,31.336 54.207,31.971 54.956,33.035 L63.283,44.863 C64.538,46.646 64.075,49.085 62.248,50.310 ZM44.121,27.419 L33.717,27.419 C31.501,27.419 29.704,25.665 29.704,23.502 C29.704,21.338 31.501,19.585 33.717,19.585 L36.879,19.585 L31.575,11.303 L7.416,48.971 C6.654,50.159 5.346,50.810 4.009,50.810 C3.282,50.810 2.546,50.618 1.883,50.213 C0.005,49.066 -0.565,46.649 0.611,44.815 L28.174,1.838 C28.908,0.694 30.194,-0.001 31.577,-0.001 L31.578,-0.001 C32.962,-0.000 34.247,0.695 34.981,1.840 L47.525,21.427 C48.298,22.635 48.338,24.156 47.631,25.401 C46.923,26.647 45.580,27.419 44.121,27.419 Z"/>
<path fill="url(#PSgrad_0)"
 d="M62.248,50.310 C61.553,50.775 60.762,50.999 59.978,50.999 C58.701,50.999 57.444,50.405 56.666,49.299 L49.535,39.170 L25.556,39.170 C23.339,39.170 21.542,37.416 21.542,35.253 C21.542,33.090 23.339,31.336 25.556,31.336 L51.647,31.336 C52.970,31.336 54.207,31.971 54.956,33.035 L63.283,44.863 C64.538,46.646 64.075,49.085 62.248,50.310 ZM44.121,27.419 L33.717,27.419 C31.501,27.419 29.704,25.665 29.704,23.502 C29.704,21.338 31.501,19.585 33.717,19.585 L36.879,19.585 L31.575,11.303 L7.416,48.971 C6.654,50.159 5.346,50.810 4.009,50.810 C3.282,50.810 2.546,50.618 1.883,50.213 C0.005,49.066 -0.565,46.649 0.611,44.815 L28.174,1.838 C28.908,0.694 30.194,-0.001 31.577,-0.001 L31.578,-0.001 C32.962,-0.000 34.247,0.695 34.981,1.840 L47.525,21.427 C48.298,22.635 48.338,24.156 47.631,25.401 C46.923,26.647 45.580,27.419 44.121,27.419 Z"/>
</svg>