<svg 
 xmlns="http://www.w3.org/2000/svg"
 xmlns:xlink="http://www.w3.org/1999/xlink"
 width="32px" height="8px">
<path fill-rule="evenodd"  fill="rgb(255, 255, 255)"
 d="M4.000,-0.000 C1.800,-0.000 -0.000,1.800 -0.000,4.000 C-0.000,6.200 1.800,8.000 4.000,8.000 C6.200,8.000 8.000,6.200 8.000,4.000 C8.000,1.800 6.200,-0.000 4.000,-0.000 ZM28.000,-0.000 C25.800,-0.000 24.000,1.800 24.000,4.000 C24.000,6.200 25.800,8.000 28.000,8.000 C30.200,8.000 32.000,6.200 32.000,4.000 C32.000,1.800 30.200,-0.000 28.000,-0.000 ZM16.000,-0.000 C13.800,-0.000 12.000,1.800 12.000,4.000 C12.000,6.200 13.800,8.000 16.000,8.000 C18.200,8.000 20.000,6.200 20.000,4.000 C20.000,1.800 18.200,-0.000 16.000,-0.000 Z"/>
</svg>