<svg 
 xmlns="http://www.w3.org/2000/svg"
 xmlns:xlink="http://www.w3.org/1999/xlink"
 width="48px" height="36px">
<path fill-rule="evenodd"  fill="rgb(255, 255, 255)"
 d="M45.000,36.000 L3.000,36.000 C1.343,36.000 -0.000,34.657 -0.000,33.000 L-0.000,3.000 C-0.000,1.343 1.343,-0.000 3.000,-0.000 L45.000,-0.000 C46.657,-0.000 48.000,1.343 48.000,3.000 L48.000,33.000 C48.000,34.657 46.657,36.000 45.000,36.000 ZM45.000,4.500 C45.000,3.672 44.328,3.000 43.500,3.000 L4.500,3.000 C3.671,3.000 3.000,3.672 3.000,4.500 L3.000,31.500 C3.000,32.328 3.671,33.000 4.500,33.000 L43.500,33.000 C44.328,33.000 45.000,32.328 45.000,31.500 L45.000,4.500 ZM28.283,25.487 C26.422,25.909 24.560,26.001 24.000,26.001 C23.491,26.001 21.611,25.907 19.717,25.487 C18.118,25.133 17.039,24.460 17.028,24.453 L16.998,24.434 L16.998,21.839 C16.998,20.573 18.628,20.074 20.067,19.633 C20.516,19.496 20.940,19.365 21.307,19.218 C21.724,19.050 21.976,18.684 22.118,18.392 C21.233,17.620 20.199,16.178 20.199,13.652 C20.199,10.261 22.726,9.997 23.501,9.997 C23.659,9.997 23.755,10.008 23.759,10.008 L24.249,10.008 C24.245,10.008 24.341,9.997 24.499,9.997 C25.274,9.997 27.801,10.261 27.801,13.652 C27.801,16.177 26.766,17.620 25.882,18.392 C26.024,18.684 26.276,19.050 26.693,19.218 C27.053,19.362 27.466,19.493 27.905,19.631 C29.356,20.088 31.003,20.606 31.003,21.839 L31.003,24.435 L30.972,24.453 C30.961,24.460 29.881,25.125 28.283,25.487 Z"/>
</svg>