<svg 
 xmlns="http://www.w3.org/2000/svg"
 xmlns:xlink="http://www.w3.org/1999/xlink"
 width="40px" height="48px">
<path fill-rule="evenodd"  fill="rgb(111, 45, 189)"
 d="M32.000,45.000 C25.282,45.977 6.671,44.000 5.000,44.000 C1.134,44.000 2.000,40.866 2.000,37.000 C2.000,34.642 9.021,31.719 14.000,29.000 C16.100,27.853 17.380,26.492 18.443,25.689 C14.568,24.211 11.000,17.605 11.000,12.000 C11.000,5.649 14.582,2.000 19.000,2.000 C23.418,2.000 28.000,4.649 28.000,11.000 C28.000,16.593 25.221,23.961 21.540,25.642 C23.304,26.718 25.871,28.886 28.000,30.000 C33.194,32.719 38.000,34.518 38.000,37.000 C38.000,39.195 40.828,43.717 32.000,45.000 Z"/>
<path fill-rule="evenodd"  fill="rgb(255, 255, 255)"
 d="M31.156,28.892 C29.904,28.478 28.721,28.086 27.696,27.654 C26.502,27.151 25.782,26.052 25.377,25.175 C27.904,22.860 30.861,18.531 30.861,10.955 C30.861,0.783 23.640,-0.008 21.427,-0.008 C20.973,-0.008 20.701,0.024 20.711,0.024 L19.311,0.025 C19.299,0.024 19.027,-0.008 18.573,-0.008 C16.360,-0.008 9.139,0.783 9.139,10.955 C9.139,18.535 12.095,22.861 14.623,25.175 C14.219,26.052 13.499,27.151 12.305,27.654 C11.257,28.096 10.045,28.487 8.762,28.899 C4.652,30.221 -0.006,31.719 -0.006,35.516 L-0.006,43.303 L0.080,43.360 C0.111,43.380 3.193,45.398 7.763,46.462 C13.173,47.720 18.545,48.004 20.001,48.004 C21.601,48.004 26.920,47.726 32.238,46.462 C36.803,45.376 39.890,43.381 39.921,43.360 L40.008,43.305 L40.008,35.516 C40.008,31.818 35.304,30.264 31.156,28.892 ZM22.545,44.582 C21.634,44.582 20.900,44.563 20.460,44.551 C20.200,44.543 20.078,44.534 19.982,44.545 C19.539,44.549 19.085,44.561 18.616,44.575 C17.968,44.591 17.290,44.609 16.567,44.609 C15.086,44.609 13.041,44.545 10.353,44.031 C6.460,43.290 3.909,41.848 3.424,41.557 L3.424,37.053 C3.424,33.681 8.250,32.530 11.444,31.767 C11.849,31.671 12.223,31.581 12.553,31.496 C15.699,30.673 17.336,28.725 18.070,27.537 C18.763,27.868 19.213,28.008 19.233,28.014 L20.711,28.023 L20.767,28.014 C20.787,28.008 21.238,27.868 21.930,27.535 C22.665,28.724 24.302,30.675 27.449,31.496 C27.842,31.598 28.297,31.701 28.793,31.812 C31.893,32.513 36.577,33.570 36.577,37.053 L36.577,41.557 C36.090,41.848 33.528,43.293 29.649,44.031 C27.731,44.398 25.340,44.582 22.545,44.582 ZM20.477,24.565 L19.524,24.565 C19.057,24.399 12.570,21.897 12.570,11.632 C12.570,4.037 17.477,3.446 18.982,3.446 C19.282,3.446 19.463,3.468 19.493,3.471 L20.532,3.469 C20.538,3.468 20.720,3.446 21.021,3.446 C22.525,3.446 27.432,4.037 27.432,11.632 C27.432,21.882 20.945,24.398 20.477,24.565 Z"/>
</svg>
