<svg 
 xmlns="http://www.w3.org/2000/svg"
 xmlns:xlink="http://www.w3.org/1999/xlink"
 width="47px" height="47px">
<path fill-rule="evenodd"  fill="rgb(255, 255, 255)"
 d="M33.333,29.333 L31.200,29.333 L30.400,28.533 C33.066,25.600 34.667,21.600 34.667,17.333 C34.667,7.733 26.933,-0.000 17.333,-0.000 C7.733,-0.000 -0.000,7.733 -0.000,17.333 C-0.000,26.933 7.733,34.667 17.333,34.667 C21.600,34.667 25.600,33.067 28.533,30.400 L29.333,31.200 L29.333,33.333 L42.666,46.667 L46.667,42.667 L33.333,29.333 ZM17.333,29.333 C10.666,29.333 5.333,24.000 5.333,17.333 C5.333,10.666 10.666,5.333 17.333,5.333 C24.000,5.333 29.333,10.666 29.333,17.333 C29.333,24.000 24.000,29.333 17.333,29.333 Z"/>
</svg>