<svg 
 xmlns="http://www.w3.org/2000/svg"
 xmlns:xlink="http://www.w3.org/1999/xlink"
 width="40px" height="40px">
<path fill-rule="evenodd"  fill="rgb(255, 255, 255)"
 d="M34.800,22.000 C34.800,21.400 35.000,20.800 35.000,20.000 C35.000,19.200 35.000,18.600 34.800,18.000 L39.000,14.600 C39.400,14.200 39.400,13.800 39.200,13.400 L35.200,6.400 C35.000,6.200 34.600,6.000 34.000,6.200 L29.000,8.200 C28.000,7.400 26.800,6.800 25.600,6.200 L24.800,1.000 C25.000,0.400 24.400,-0.000 24.000,-0.000 L16.000,-0.000 C15.600,-0.000 15.000,0.400 15.000,0.800 L14.200,6.200 C13.000,6.600 12.000,7.400 10.800,8.200 L6.000,6.200 C5.400,6.000 5.000,6.200 4.600,6.600 L0.600,13.600 C0.400,13.800 0.600,14.400 1.000,14.800 L5.200,18.000 C5.200,18.600 5.000,19.200 5.000,20.000 C5.000,20.800 5.000,21.400 5.200,22.000 L1.000,25.400 C0.600,25.800 0.600,26.200 0.800,26.600 L4.800,33.600 C5.000,33.800 5.400,34.000 6.000,33.800 L11.000,31.800 C12.000,32.600 13.200,33.200 14.400,33.800 L15.200,39.000 C15.200,39.400 15.600,39.800 16.200,39.800 L24.200,39.800 C24.600,39.800 25.200,39.400 25.200,39.000 L26.000,33.800 C27.200,33.200 28.400,32.600 29.400,31.800 L34.400,33.800 C34.800,34.000 35.400,33.800 35.600,33.400 L39.600,26.400 C39.800,26.000 39.800,25.400 39.400,25.200 L34.800,22.000 ZM20.000,27.000 C16.200,27.000 13.000,23.800 13.000,20.000 C13.000,16.200 16.200,13.000 20.000,13.000 C23.800,13.000 27.000,16.200 27.000,20.000 C27.000,23.800 23.800,27.000 20.000,27.000 Z"/>
</svg>