<svg
 xmlns="http://www.w3.org/2000/svg"
 xmlns:xlink="http://www.w3.org/1999/xlink"
 width="44px" height="30px">
<path fill-rule="evenodd"  fill="rgb(111, 45, 189)"
 d="M22.000,-0.000 C12.000,-0.000 3.400,6.200 -0.000,15.000 C3.400,23.800 12.000,30.000 22.000,30.000 C32.000,30.000 40.600,23.800 44.000,15.000 C40.600,6.200 32.000,-0.000 22.000,-0.000 ZM22.000,25.000 C16.400,25.000 12.000,20.600 12.000,15.000 C12.000,9.400 16.400,5.000 22.000,5.000 C27.600,5.000 32.000,9.400 32.000,15.000 C32.000,20.600 27.600,25.000 22.000,25.000 ZM22.000,9.000 C18.600,9.000 16.000,11.600 16.000,15.000 C16.000,18.400 18.600,21.000 22.000,21.000 C25.400,21.000 28.000,18.400 28.000,15.000 C28.000,11.600 25.400,9.000 22.000,9.000 Z"/>
</svg>
